<svg xmlns="http://www.w3.org/2000/svg" width="900" height="300" viewBox="0 0 900 300" fill="none" role="img" aria-labelledby="title desc">
<title id="title">JESUS WEB3 — AI, quant and crypto systems</title>
<desc id="desc">AI agents · Trading systems · Quant research · Web3 automation</desc>
<defs>
<radialGradient id="glow" cx="450" cy="130" r="330" gradientUnits="userSpaceOnUse"><stop offset="0" stop-color="#8B7BFF" stop-opacity=".18"/><stop offset=".5" stop-color="#8B7BFF" stop-opacity=".05"/><stop offset="1" stop-color="#8B7BFF" stop-opacity="0"/></radialGradient>
<pattern id="dots" width="22" height="22" patternUnits="userSpaceOnUse"><circle cx="1" cy="1" r="1" fill="#FFFFFF" fill-opacity=".1"/></pattern>
<radialGradient id="dotsFade" cx="450" cy="130" r="445.50000000000006" gradientUnits="userSpaceOnUse"><stop offset="0" stop-color="#FFFFFF"/><stop offset="1" stop-color="#000000"/></radialGradient>
<linearGradient id="core" x1="0" y1="0" x2="1" y2="1"><stop offset="0" stop-color="#8B7BFF"/><stop offset="1" stop-color="#6CA6FF"/></linearGradient>
<filter id="soft" x="-2" y="-2" width="5" height="5"><feGaussianBlur stdDeviation="16"/></filter>
<mask id="dotsMask" maskUnits="userSpaceOnUse" x="0" y="0" width="900" height="300"><rect width="900" height="300" fill="url(#dotsFade)"/></mask>
<clipPath id="wmClip"><rect x="-6" y="-2.5" width="461" height="51"/></clipPath>
<linearGradient id="rule" gradientUnits="userSpaceOnUse" x1="180" y1="0" x2="720" y2="0"><stop offset="0" stop-color="#7D8490" stop-opacity="0"/><stop offset=".5" stop-color="#7D8490" stop-opacity=".45"/><stop offset="1" stop-color="#7D8490" stop-opacity="0"/></linearGradient></defs>

<rect width="900" height="300" fill="#07080A"/>
<rect width="900" height="300" fill="url(#glow)"/>
<rect width="900" height="300" fill="url(#dots)" mask="url(#dotsMask)"/>
<text x="450" y="56" font-family="ui-monospace, SFMono-Regular, 'SF Mono', 'JetBrains Mono', 'Cascadia Mono', Consolas, 'Liberation Mono', Menlo, monospace" font-size="11.5" fill="#7D8490" text-anchor="middle" textLength="304.5" lengthAdjust="spacing">JW3 — INDEPENDENT ENGINEERING LAB</text>
<g transform="translate(221.01 88) scale(1.02)"><g clip-path="url(#wmClip)"><path d="M30 0V38A8 8 0 0 1 22 46H8A8 8 0 0 1 0 38V33M75 0H46V46H75M46 23H71M123 0H99A8 8 0 0 0 91 8V15A8 8 0 0 0 99 23H115A8 8 0 0 1 123 31V38A8 8 0 0 1 115 46H91M139 0V38A8 8 0 0 0 147 46H163A8 8 0 0 0 171 38V0M219 0H195A8 8 0 0 0 187 8V15A8 8 0 0 0 195 23H211A8 8 0 0 1 219 31V38A8 8 0 0 1 211 46H187M259 0L270 46L284 12L298 46L309 0M354 0H325V46H354M325 23H350M370 46V0H391A8 8 0 0 1 399 8V15A8 8 0 0 1 391 23H370M370 23H394A8 8 0 0 1 402 31V38A8 8 0 0 1 394 46H370M418 0H438A8 8 0 0 1 446 8V15A8 8 0 0 1 438 23H428M438 23H441A8 8 0 0 1 449 31V38A8 8 0 0 1 441 46H418" stroke="#F0F2F5" stroke-width="5" stroke-linecap="square" stroke-linejoin="miter"/></g></g>
<text x="450" y="180" font-family="ui-monospace, SFMono-Regular, 'SF Mono', 'JetBrains Mono', 'Cascadia Mono', Consolas, 'Liberation Mono', Menlo, monospace" font-size="14.5" fill="#F0F2F5" text-anchor="middle" textLength="349.3" lengthAdjust="spacing">AI<tspan fill="#8B7BFF"> · </tspan>QUANT<tspan fill="#8B7BFF"> · </tspan>CRYPTO SYSTEMS</text>
<text x="450" y="214" font-family="ui-monospace, SFMono-Regular, 'SF Mono', 'JetBrains Mono', 'Cascadia Mono', Consolas, 'Liberation Mono', Menlo, monospace" font-size="12.5" fill="#7D8490" text-anchor="middle" textLength="526" lengthAdjust="spacing">AI AGENTS · TRADING SYSTEMS · QUANT RESEARCH · WEB3 AUTOMATION</text>
<rect x="180" y="243" width="540" height="1" fill="url(#rule)"/>
<circle cx="346" cy="272" r="3.6" fill="#8B7BFF"/>
<text x="362" y="277" font-family="ui-monospace, SFMono-Regular, 'SF Mono', 'JetBrains Mono', 'Cascadia Mono', Consolas, 'Liberation Mono', Menlo, monospace" font-size="12" font-weight="600" fill="#F0F2F5" textLength="195.2" lengthAdjust="spacing">OPEN FOR NEW PROJECTS</text>
</svg>