<svg xmlns="http://www.w3.org/2000/svg" width="900" height="300" viewBox="0 0 900 300" fill="none" role="img" aria-labelledby="title desc">
<title id="title">JESUS WEB3 — AI · Quant · Crypto Systems</title>
<desc id="desc">Building systems that research, trade and operate on their own.</desc>
<defs>
<clipPath id="frame"><rect width="900" height="300" rx="16"/></clipPath>
<radialGradient id="glow" cx="772" cy="146" r="220" gradientUnits="userSpaceOnUse"><stop offset="0" stop-color="#8B7BFF" stop-opacity=".17"/><stop offset=".5" stop-color="#8B7BFF" stop-opacity=".045"/><stop offset="1" stop-color="#8B7BFF" stop-opacity="0"/></radialGradient>
<pattern id="dots" width="20" height="20" patternUnits="userSpaceOnUse"><circle cx="1" cy="1" r=".9" fill="#FFFFFF" fill-opacity=".1"/></pattern>
<radialGradient id="dotsFade" cx="772" cy="146" r="280" gradientUnits="userSpaceOnUse"><stop offset="0" stop-color="#FFFFFF"/><stop offset="1" stop-color="#000000"/></radialGradient>
<mask id="dotsMask" maskUnits="userSpaceOnUse" x="0" y="0" width="900" height="300"><rect width="900" height="300" fill="url(#dotsFade)"/></mask>
<linearGradient id="sweep" gradientUnits="userSpaceOnUse" x1="-190" y1="0" x2="-70" y2="60"><stop offset="0" stop-color="#F0F2F5"/><stop offset=".5" stop-color="#B3A8FF"/><stop offset="1" stop-color="#F0F2F5"/><animateTransform attributeName="transform" type="translate" values="0 0;720 0;720 0" keyTimes="0;.42;1" dur="12s" repeatCount="indefinite" calcMode="spline" keySplines=".4 0 .6 1;0 0 1 1"/></linearGradient>
<clipPath id="wmClip"><rect x="-6" y="-2.5" width="461" height="51"/></clipPath>
<clipPath id="typed"><rect x="76" y="234" width="582" height="28"><animate attributeName="width" values="0;9;18;27;36;45;54;63;72;81;90;99;108;117;126;135;144;153;162;171;180;189;198;207;216;225;234;243;252;261;270;279;288;297;306;315;324;333;342;351;360;369;378;387;396;405;414;423;432;441;450;459;468;477;486;495;504;513;522;531;540;549;558;582" keyTimes="0;0.0455;0.0510;0.0565;0.0619;0.0674;0.0729;0.0784;0.0839;0.0894;0.0948;0.1003;0.1058;0.1113;0.1168;0.1223;0.1277;0.1332;0.1387;0.1442;0.1497;0.1552;0.1606;0.1661;0.1716;0.1771;0.1826;0.1881;0.1935;0.1990;0.2045;0.2100;0.2155;0.2210;0.2265;0.2319;0.2374;0.2429;0.2484;0.2539;0.2594;0.2648;0.2703;0.2758;0.2813;0.2868;0.2923;0.2977;0.3032;0.3087;0.3142;0.3197;0.3252;0.3306;0.3361;0.3416;0.3471;0.3526;0.3581;0.3635;0.3690;0.3745;0.3800;0.3820" dur="18s" repeatCount="indefinite" calcMode="discrete"/></rect></clipPath>
<linearGradient id="core" x1="0" y1="0" x2="1" y2="1"><stop offset="0" stop-color="#8B7BFF"/><stop offset="1" stop-color="#6CA6FF"/></linearGradient>
<linearGradient id="edge" gradientUnits="userSpaceOnUse" x1="480" y1="0" x2="880" y2="0"><stop offset="0" stop-color="#8B7BFF" stop-opacity="0"/><stop offset=".6" stop-color="#8B7BFF" stop-opacity=".75"/><stop offset="1" stop-color="#8B7BFF" stop-opacity="0"/></linearGradient>
<filter id="soft" x="-2" y="-2" width="5" height="5"><feGaussianBlur stdDeviation="10"/></filter></defs>

<g clip-path="url(#frame)">
<rect width="900" height="300" fill="#07080A"/>
<rect width="900" height="300" fill="url(#glow)"/>
<rect width="900" height="300" fill="url(#dots)" mask="url(#dotsMask)"/>
<path d="M480 299.5H880" stroke="url(#edge)"/>
<g><path d="M63 40.8L63 36M59.8 44L55 44M66.2 44L71 44M63 47.2L63 56.8" stroke="#7D8490" stroke-width="1.1"/><path d="M63 42.4L64.6 44L63 45.6L61.4 44Z" fill="#8B7BFF"/></g>
<text x="84" y="48" font-family="ui-monospace, SFMono-Regular, 'SF Mono', 'JetBrains Mono', 'Cascadia Mono', Consolas, 'Liberation Mono', Menlo, monospace" font-size="11" fill="#7D8490" textLength="256" lengthAdjust="spacing">JW3 — INDEPENDENT RESEARCH LAB</text>
<g transform="translate(56 98) scale(1.3)"><g clip-path="url(#wmClip)"><path d="M30 0V38A8 8 0 0 1 22 46H8A8 8 0 0 1 0 38V33M75 0H46V46H75M46 23H71M123 0H99A8 8 0 0 0 91 8V15A8 8 0 0 0 99 23H115A8 8 0 0 1 123 31V38A8 8 0 0 1 115 46H91M139 0V38A8 8 0 0 0 147 46H163A8 8 0 0 0 171 38V0M219 0H195A8 8 0 0 0 187 8V15A8 8 0 0 0 195 23H211A8 8 0 0 1 219 31V38A8 8 0 0 1 211 46H187M259 0L270 46L284 12L298 46L309 0M354 0H325V46H354M325 23H350M370 46V0H391A8 8 0 0 1 399 8V15A8 8 0 0 1 391 23H370M370 23H394A8 8 0 0 1 402 31V38A8 8 0 0 1 394 46H370M418 0H438A8 8 0 0 1 446 8V15A8 8 0 0 1 438 23H428M438 23H441A8 8 0 0 1 449 31V38A8 8 0 0 1 441 46H418" stroke="url(#sweep)" stroke-width="5" stroke-linecap="square" stroke-linejoin="miter"/></g></g>
<text x="57" y="202" font-family="ui-monospace, SFMono-Regular, 'SF Mono', 'JetBrains Mono', 'Cascadia Mono', Consolas, 'Liberation Mono', Menlo, monospace" font-size="15" fill="#F0F2F5" textLength="347" lengthAdjust="spacing">AI<tspan fill="#8B7BFF"> · </tspan>QUANT<tspan fill="#8B7BFF"> · </tspan>CRYPTO SYSTEMS</text>
<path d="M58 243.5l5.5 5.5-5.5 5.5" stroke="#8B7BFF" stroke-width="1.6"/>
<g clip-path="url(#typed)"><g><animate attributeName="opacity" values="1;1;0;0" keyTimes="0;.93;.98;1" dur="18s" repeatCount="indefinite"/><text x="76" y="252" font-family="ui-monospace, SFMono-Regular, 'SF Mono', 'JetBrains Mono', 'Cascadia Mono', Consolas, 'Liberation Mono', Menlo, monospace" font-size="15" fill="#F0F2F5" textLength="558" lengthAdjust="spacing" opacity="0.72">building systems that research, trade and operate on their own</text></g></g>
<g><animate attributeName="opacity" values="1;0" keyTimes="0;.5" dur="1.1s" repeatCount="indefinite" calcMode="discrete"/><rect x="636" y="240" width="8" height="16" fill="#8B7BFF"><animateTransform attributeName="transform" type="translate" values="-558 0;-549 0;-540 0;-531 0;-522 0;-513 0;-504 0;-495 0;-486 0;-477 0;-468 0;-459 0;-450 0;-441 0;-432 0;-423 0;-414 0;-405 0;-396 0;-387 0;-378 0;-369 0;-360 0;-351 0;-342 0;-333 0;-324 0;-315 0;-306 0;-297 0;-288 0;-279 0;-270 0;-261 0;-252 0;-243 0;-234 0;-225 0;-216 0;-207 0;-198 0;-189 0;-180 0;-171 0;-162 0;-153 0;-144 0;-135 0;-126 0;-117 0;-108 0;-99 0;-90 0;-81 0;-72 0;-63 0;-54 0;-45 0;-36 0;-27 0;-18 0;-9 0;0 0" keyTimes="0;0.0455;0.0510;0.0565;0.0619;0.0674;0.0729;0.0784;0.0839;0.0894;0.0948;0.1003;0.1058;0.1113;0.1168;0.1223;0.1277;0.1332;0.1387;0.1442;0.1497;0.1552;0.1606;0.1661;0.1716;0.1771;0.1826;0.1881;0.1935;0.1990;0.2045;0.2100;0.2155;0.2210;0.2265;0.2319;0.2374;0.2429;0.2484;0.2539;0.2594;0.2648;0.2703;0.2758;0.2813;0.2868;0.2923;0.2977;0.3032;0.3087;0.3142;0.3197;0.3252;0.3306;0.3361;0.3416;0.3471;0.3526;0.3581;0.3635;0.3690;0.3745;0.3800" dur="18s" repeatCount="indefinite" calcMode="discrete"/></rect></g>
<circle cx="772" cy="146" r="58" stroke="#262A32"/>
<circle cx="772" cy="146" r="96" stroke="#7D8490" stroke-opacity=".45" stroke-width="1.2" stroke-linecap="round" stroke-dasharray="0 6"/>
<path d="M810.18 184.18L815.84 189.84M733.82 184.18L728.16 189.84M733.82 107.82L728.16 102.16M810.18 107.82L815.84 102.16" stroke="#7D8490" stroke-opacity=".6"/>
<path d="M688.86 98L734.5 146M688.86 194L734.5 146M830.21 36.51L772 108.5M867.07 132.64L809.5 146M840.95 234.26L809.5 146M741.03 270.2L772 206M867.07 132.64L840.95 234.26M688.86 194L741.03 270.2M688.86 98L830.21 36.51" stroke="#FFFFFF" stroke-opacity=".08"/>
<circle cx="688.86" cy="98" r="2" fill="#7D8490"/><circle cx="830.21" cy="36.51" r="2" fill="#7D8490"/><circle cx="867.07" cy="132.64" r="2.6" fill="#8B7BFF"/><circle cx="840.95" cy="234.26" r="2" fill="#7D8490"/><circle cx="688.86" cy="194" r="2" fill="#7D8490"/><circle cx="741.03" cy="270.2" r="2.6" fill="#6CA6FF"/>
<circle cx="772" cy="146" r="16" fill="#8B7BFF" opacity=".5" filter="url(#soft)"/>
<g transform="translate(772 146)"><circle r="9" stroke="#8B7BFF" stroke-width="1.2" vector-effect="non-scaling-stroke" opacity="0">
<animateTransform attributeName="transform" type="scale" values="1;5.5;5.5" keyTimes="0;.75;1" dur="6s" begin="0s" repeatCount="indefinite" calcMode="spline" keySplines=".16 .7 .3 1;0 0 1 1"/>
<animate attributeName="opacity" values=".55;0;0" keyTimes="0;.75;1" dur="6s" begin="0s" repeatCount="indefinite"/>
</circle></g>
<g transform="translate(772 146)"><circle r="9" stroke="#8B7BFF" stroke-width="1.2" vector-effect="non-scaling-stroke" opacity="0">
<animateTransform attributeName="transform" type="scale" values="1;5.5;5.5" keyTimes="0;.75;1" dur="6s" begin="3s" repeatCount="indefinite" calcMode="spline" keySplines=".16 .7 .3 1;0 0 1 1"/>
<animate attributeName="opacity" values=".55;0;0" keyTimes="0;.75;1" dur="6s" begin="3s" repeatCount="indefinite"/>
</circle></g>
<g><path d="M772 131L772 108.5M757 146L734.5 146M787 146L809.5 146M772 161L772 206" stroke="#F0F2F5" stroke-width="2.1"/><path d="M772 138.5L779.5 146L772 153.5L764.5 146Z" fill="url(#core)"/><path d="M772 105.35L775.15 108.5L772 111.65L768.85 108.5ZM734.5 142.85L737.65 146L734.5 149.15L731.35 146ZM809.5 142.85L812.65 146L809.5 149.15L806.35 146ZM772 202.85L775.15 206L772 209.15L768.85 206Z" fill="#F0F2F5"/></g>
<g transform="translate(867.07 132.64)"><circle r="2.2" fill="#B3A8FF" opacity="0">
<animateTransform attributeName="transform" type="translate" values="0 0;-57.57 13.36;-57.57 13.36" keyTimes="0;.7;1" dur="8s" begin="1s" repeatCount="indefinite" calcMode="spline" keySplines=".4 0 .2 1;0 0 1 1"/>
<animate attributeName="opacity" values="0;1;1;0;0" keyTimes="0;.12;.7;.8;1" dur="8s" begin="1s" repeatCount="indefinite"/>
</circle></g><g transform="translate(688.86 194)"><circle r="2.2" fill="#B3A8FF" opacity="0">
<animateTransform attributeName="transform" type="translate" values="0 0;45.64 -48;45.64 -48" keyTimes="0;.7;1" dur="10s" begin="4s" repeatCount="indefinite" calcMode="spline" keySplines=".4 0 .2 1;0 0 1 1"/>
<animate attributeName="opacity" values="0;1;1;0;0" keyTimes="0;.12;.7;.8;1" dur="10s" begin="4s" repeatCount="indefinite"/>
</circle></g>
</g>
<rect x="0.5" y="0.5" width="899" height="299" rx="15.5" stroke="#1A1D23"/>
</svg>